<svg width="21" height="20" viewBox="0 0 21 20" fill="none" xmlns="http://www.w3.org/2000/svg">
<path d="M6.1875 0.375L5.5 1.0625V3.16212C5.95697 3.11216 6.41803 3.11216 6.875 3.16212V1.75H19.25V8.625H16.9029L15.125 10.4029V8.625H12.3379C12.3878 9.08197 12.3878 9.54303 12.3379 10H13.75V12.0625L14.9242 12.5492L17.4721 10H19.9375L20.625 9.3125V1.0625L19.9375 0.375H6.1875Z" fill="#FFFCFC"/>
<path fill-rule="evenodd" clip-rule="evenodd" d="M8.82337 13.3399C9.69043 12.7723 10.3511 11.94 10.7071 10.9667C11.0631 9.99347 11.0955 8.93129 10.7993 7.93818C10.5031 6.94508 9.89433 6.0741 9.0634 5.4548C8.23247 4.8355 7.22383 4.50098 6.1875 4.50098C5.15117 4.50098 4.14253 4.8355 3.3116 5.4548C2.48067 6.0741 1.87185 6.94508 1.5757 7.93818C1.27954 8.93129 1.31187 9.99347 1.66789 10.9667C2.0239 11.94 2.68457 12.7723 3.55163 13.3399C2.48963 13.84 1.59179 14.6318 0.96291 15.623C0.334032 16.6141 6.63171e-05 17.7637 0 18.9376L0 19.6251H1.375V18.9376C1.4172 17.6894 1.94272 16.5064 2.84063 15.6383C3.73854 14.7703 4.93859 14.285 6.1875 14.285C7.43641 14.285 8.63646 14.7703 9.53437 15.6383C10.4323 16.5064 10.9578 17.6894 11 18.9376V19.6251H12.375V18.9376C12.3749 17.7637 12.041 16.6141 11.4121 15.623C10.7832 14.6318 9.88537 13.84 8.82337 13.3399ZM6.1875 12.7501C5.27582 12.7501 4.40148 12.3879 3.75682 11.7432C3.11216 11.0986 2.75 10.2242 2.75 9.31255C2.75 8.40087 3.11216 7.52653 3.75682 6.88187C4.40148 6.23722 5.27582 5.87505 6.1875 5.87505C7.09918 5.87505 7.97352 6.23722 8.61818 6.88187C9.26284 7.52653 9.625 8.40087 9.625 9.31255C9.625 10.2242 9.26284 11.0986 8.61818 11.7432C7.97352 12.3879 7.09918 12.7501 6.1875 12.7501Z" fill="#FFFCFC"/>
</svg>
