<svg width="23" height="23" viewBox="0 0 23 23" fill="none" xmlns="http://www.w3.org/2000/svg">
<path d="M11.0298 0C4.93863 0 0 4.94041 0 11.0298C0 17.1227 4.93863 22.0596 11.0298 22.0596C17.1209 22.0596 22.0596 17.1227 22.0596 11.0298C22.0596 4.94041 17.1209 0 11.0298 0ZM11.0298 19.9248C6.11388 19.9248 2.1348 15.9473 2.1348 11.0298C2.1348 6.11553 6.11406 2.1348 11.0298 2.1348C15.9439 2.1348 19.9248 6.11401 19.9248 11.0298C19.9248 15.9456 15.9473 19.9248 11.0298 19.9248ZM15.7995 8.57477C15.7995 11.5569 12.5785 11.6028 12.5785 12.7048V12.9867C12.5785 13.2814 12.3396 13.5204 12.0448 13.5204H10.0147C9.71995 13.5204 9.48099 13.2814 9.48099 12.9867V12.6016C9.48099 11.0118 10.6863 10.3763 11.5971 9.86565C12.3781 9.4278 12.8568 9.12999 12.8568 8.55013C12.8568 7.78311 11.8784 7.27401 11.0874 7.27401C10.0561 7.27401 9.57995 7.76221 8.91069 8.60688C8.73025 8.83459 8.401 8.87689 8.16947 8.70134L6.932 7.76301C6.70486 7.59081 6.65398 7.27085 6.81441 7.03527C7.86522 5.49225 9.20364 4.62539 11.2875 4.62539C13.4699 4.62539 15.7995 6.32896 15.7995 8.57477ZM12.8977 16.011C12.8977 17.041 12.0598 17.8789 11.0298 17.8789C9.99979 17.8789 9.16184 17.041 9.16184 16.011C9.16184 14.981 9.99979 14.143 11.0298 14.143C12.0598 14.143 12.8977 14.981 12.8977 16.011Z" fill="white"/>
</svg>
