<svg width="21" height="21" viewBox="0 0 21 21" fill="none" xmlns="http://www.w3.org/2000/svg">
<path d="M5 0V2H1C0.734784 2 0.48043 2.10536 0.292893 2.29289C0.105357 2.48043 0 2.73478 0 3V19C0 19.2652 0.105357 19.5196 0.292893 19.7071C0.48043 19.8946 0.734784 20 1 20H8.755C7.52418 18.4627 6.90363 16.5255 7.01215 14.5592C7.12066 12.5928 7.95063 10.7356 9.34314 9.34314C10.7356 7.95063 12.5928 7.12066 14.5592 7.01215C16.5255 6.90363 18.4627 7.52418 20 8.755V3C20 2.73478 19.8946 2.48043 19.7071 2.29289C19.5196 2.10536 19.2652 2 19 2H15V0H13V2H7V0H5ZM21 15C21 15.7879 20.8448 16.5681 20.5433 17.2961C20.2417 18.0241 19.7998 18.6855 19.2426 19.2426C18.6855 19.7998 18.0241 20.2417 17.2961 20.5433C16.5681 20.8448 15.7879 21 15 21C14.2121 21 13.4319 20.8448 12.7039 20.5433C11.9759 20.2417 11.3145 19.7998 10.7574 19.2426C10.2002 18.6855 9.75825 18.0241 9.45672 17.2961C9.1552 16.5681 9 15.7879 9 15C9 13.4087 9.63214 11.8826 10.7574 10.7574C11.8826 9.63214 13.4087 9 15 9C16.5913 9 18.1174 9.63214 19.2426 10.7574C20.3679 11.8826 21 13.4087 21 15ZM14 11V15.414L16.293 17.707L17.707 16.293L16 14.586V11H14Z" fill="#FFF8F8"/>
</svg>
